<svg xmlns="http://www.w3.org/2000/svg" version="1.1" xmlns:xlink="http://www.w3.org/1999/xlink" xmlns:svgjs="http://svgjs.com/svgjs" width="1440" height="560" preserveAspectRatio="none" viewBox="0 0 1440 560">
    <g mask="url(&quot;#SvgjsMask2596&quot;)" fill="none">
        <path d="M33.92 -2.69L98.87 34.81L98.87 109.81L33.92 147.31L-31.03 109.81L-31.03 34.81zM98.87 109.81L163.83 147.31L163.83 222.31L98.87 259.81L33.92 222.31L33.92 147.31zM33.92 222.31L98.87 259.81L98.87 334.81L33.92 372.31L-31.03 334.81L-31.03 259.81zM163.83 -2.69L228.78 34.81L228.78 109.81L163.83 147.31L98.87 109.81L98.87 34.81zM293.74 -2.69L358.69 34.81L358.69 109.81L293.74 147.31L228.78 109.81L228.78 34.81zM293.74 222.31L358.69 259.81L358.69 334.81L293.74 372.31L228.78 334.81L228.78 259.81zM488.6 109.81L553.55 147.31L553.55 222.31L488.6 259.81L423.64 222.31L423.64 147.31zM488.6 334.81L553.55 372.31L553.55 447.31L488.6 484.81L423.64 447.31L423.64 372.31zM553.55 -2.69L618.5 34.81L618.5 109.81L553.55 147.31L488.6 109.81L488.6 34.81zM878.32 334.81L943.27 372.31L943.27 447.31L878.32 484.81L813.36 447.31L813.36 372.31zM1073.18 222.31L1138.13 259.81L1138.13 334.81L1073.18 372.31L1008.23 334.81L1008.23 259.81zM1203.09 222.31L1268.04 259.81L1268.04 334.81L1203.09 372.31L1138.13 334.81L1138.13 259.81zM1203.09 447.31L1268.04 484.81L1268.04 559.81L1203.09 597.31L1138.13 559.81L1138.13 484.81zM1397.95 109.81L1462.9 147.31L1462.9 222.31L1397.95 259.81L1333 222.31L1333 147.31zM1527.86 109.81L1592.81 147.31L1592.81 222.31L1527.86 259.81L1462.9 222.31L1462.9 147.31zM1527.86 334.81L1592.81 372.31L1592.81 447.31L1527.86 484.81L1462.9 447.31L1462.9 372.31zM1462.9 447.31L1527.86 484.81L1527.86 559.81L1462.9 597.31L1397.95 559.81L1397.95 484.81z" stroke="rgba(47, 19, 206, 0.14)" stroke-width="2"></path>
        <path d="M343.53 83.29L457.84 149.29L457.84 281.29L343.53 347.29L229.21 281.29L229.21 149.29zM229.21 281.29L343.53 347.29L343.53 479.29L229.21 545.29L114.89 479.29L114.89 347.29zM457.84 -114.71L572.16 -48.71L572.16 83.29L457.84 149.29L343.53 83.29L343.53 -48.71zM572.16 83.29L686.48 149.29L686.48 281.29L572.16 347.29L457.84 281.29L457.84 149.29zM457.84 281.29L572.16 347.29L572.16 479.29L457.84 545.29L343.53 479.29L343.53 347.29zM800.8 479.29L915.12 545.29L915.12 677.29L800.8 743.29L686.48 677.29L686.48 545.29zM1029.44 83.29L1143.76 149.29L1143.76 281.29L1029.44 347.29L915.12 281.29L915.12 149.29zM915.12 281.29L1029.44 347.29L1029.44 479.29L915.12 545.29L800.8 479.29L800.8 347.29zM1029.44 479.29L1143.76 545.29L1143.76 677.29L1029.44 743.29L915.12 677.29L915.12 545.29zM1143.76 -114.71L1258.07 -48.71L1258.07 83.29L1143.76 149.29L1029.44 83.29L1029.44 -48.71zM1258.07 83.29L1372.39 149.29L1372.39 281.29L1258.07 347.29L1143.76 281.29L1143.76 149.29zM1143.76 281.29L1258.07 347.29L1258.07 479.29L1143.76 545.29L1029.44 479.29L1029.44 347.29zM1258.07 479.29L1372.39 545.29L1372.39 677.29L1258.07 743.29L1143.76 677.29L1143.76 545.29zM1486.71 83.29L1601.03 149.29L1601.03 281.29L1486.71 347.29L1372.39 281.29L1372.39 149.29z" stroke="rgba(0, 0, 0, 0.09)" stroke-width="2"></path>
    </g>
    <defs>
        <mask id="SvgjsMask2596">
            <rect width="1440" height="560" fill="#ffffff"></rect>
        </mask>
    </defs>
</svg>